# xmcd
#
# Track frame offsets:
#	150
#	20588
#	36276
#	55126
#	69971
#	91177
#
# Disc length: 1495 seconds
#
# Revision: 0
# Processed by: cddbd v1.5.2PL0 Copyright (c) Steve Scherf et al.
# Submitted via: dBpowerAMP V4.0
#
DISCID=4405d506
DTITLE=Charlie Heinemann and the Repeat Offenders - Untitled
DYEAR=2010
DGENRE=Alt Country
TTITLE0=L.A. Is Totally Awesome
TTITLE1=You Make It So Easy
TTITLE2=I Wanna Be Good
TTITLE3=Exception to the Rule
TTITLE4=Electra
TTITLE5=Disheartened
EXTD=
EXTT0=
EXTT1=
EXTT2=
EXTT3=
EXTT4=
EXTT5=
PLAYORDER=
